<mxfile host="app.diagrams.net" modified="2022-02-25T03:21:44.081Z" agent="5.0 (Macintosh; Intel Mac OS X 10_15_7) AppleWebKit/537.36 (KHTML, like Gecko) Chrome/98.0.4758.109 Safari/537.36" etag="3GrKQgyJmGkoDEJ8tEOS" version="16.6.3" type="github" pages="2">
  <diagram id="wiDFAiqb1hgUTGsGTy8J" name="Page-1">
    <mxGraphModel dx="926" dy="493" grid="0" gridSize="10" guides="1" tooltips="1" connect="1" arrows="1" fold="1" page="1" pageScale="1" pageWidth="1169" pageHeight="827" math="0" shadow="0">
      <root>
        <mxCell id="0" />
        <mxCell id="1" parent="0" />
        <mxCell id="bQ-SviAdAgsEly6TEwBb-12" style="edgeStyle=orthogonalEdgeStyle;rounded=0;orthogonalLoop=1;jettySize=auto;html=1;exitX=0.5;exitY=1;exitDx=0;exitDy=0;" parent="1" source="bQ-SviAdAgsEly6TEwBb-1" target="bQ-SviAdAgsEly6TEwBb-8" edge="1">
          <mxGeometry relative="1" as="geometry" />
        </mxCell>
        <mxCell id="bQ-SviAdAgsEly6TEwBb-1" value="加入SDK源码目录" style="rounded=1;whiteSpace=wrap;html=1;" parent="1" vertex="1">
          <mxGeometry x="320" y="289" width="120" height="40" as="geometry" />
        </mxCell>
        <mxCell id="bQ-SviAdAgsEly6TEwBb-11" style="edgeStyle=orthogonalEdgeStyle;rounded=0;orthogonalLoop=1;jettySize=auto;html=1;exitX=0.5;exitY=1;exitDx=0;exitDy=0;entryX=0.5;entryY=0;entryDx=0;entryDy=0;" parent="1" source="bQ-SviAdAgsEly6TEwBb-2" target="bQ-SviAdAgsEly6TEwBb-1" edge="1">
          <mxGeometry relative="1" as="geometry" />
        </mxCell>
        <mxCell id="bQ-SviAdAgsEly6TEwBb-2" value="读取数据上报模版生成实体类java文件" style="rounded=1;whiteSpace=wrap;html=1;" parent="1" vertex="1">
          <mxGeometry x="320" y="219" width="120" height="40" as="geometry" />
        </mxCell>
        <mxCell id="bQ-SviAdAgsEly6TEwBb-3" value="可一次性读取多个数据模版，数据模版经过打包变成实体内作为接口参数" style="shape=note;whiteSpace=wrap;html=1;backgroundOutline=1;darkOpacity=0.05;" parent="1" vertex="1">
          <mxGeometry x="580" y="119" width="200" height="120" as="geometry" />
        </mxCell>
        <mxCell id="bQ-SviAdAgsEly6TEwBb-4" value="" style="endArrow=none;html=1;rounded=0;exitX=1;exitY=0.5;exitDx=0;exitDy=0;" parent="1" source="bQ-SviAdAgsEly6TEwBb-2" target="bQ-SviAdAgsEly6TEwBb-3" edge="1">
          <mxGeometry width="50" height="50" relative="1" as="geometry">
            <mxPoint x="450" y="299" as="sourcePoint" />
            <mxPoint x="500" y="249" as="targetPoint" />
          </mxGeometry>
        </mxCell>
        <mxCell id="bQ-SviAdAgsEly6TEwBb-10" style="edgeStyle=orthogonalEdgeStyle;rounded=0;orthogonalLoop=1;jettySize=auto;html=1;exitX=0.5;exitY=1;exitDx=0;exitDy=0;entryX=0.5;entryY=0;entryDx=0;entryDy=0;" parent="1" source="bQ-SviAdAgsEly6TEwBb-5" target="bQ-SviAdAgsEly6TEwBb-2" edge="1">
          <mxGeometry relative="1" as="geometry" />
        </mxCell>
        <mxCell id="bQ-SviAdAgsEly6TEwBb-5" value="定义SDK源码目录" style="rounded=1;whiteSpace=wrap;html=1;" parent="1" vertex="1">
          <mxGeometry x="320" y="149" width="120" height="40" as="geometry" />
        </mxCell>
        <mxCell id="bQ-SviAdAgsEly6TEwBb-9" style="edgeStyle=orthogonalEdgeStyle;rounded=0;orthogonalLoop=1;jettySize=auto;html=1;exitX=0.5;exitY=1;exitDx=0;exitDy=0;entryX=0.5;entryY=0;entryDx=0;entryDy=0;" parent="1" source="bQ-SviAdAgsEly6TEwBb-7" target="bQ-SviAdAgsEly6TEwBb-5" edge="1">
          <mxGeometry relative="1" as="geometry" />
        </mxCell>
        <mxCell id="bQ-SviAdAgsEly6TEwBb-7" value="编写SDK通用源码（可编译）" style="rounded=1;whiteSpace=wrap;html=1;" parent="1" vertex="1">
          <mxGeometry x="320" y="79" width="120" height="40" as="geometry" />
        </mxCell>
        <mxCell id="bQ-SviAdAgsEly6TEwBb-8" value="调用打包工具&lt;br&gt;生成jar包" style="rounded=1;whiteSpace=wrap;html=1;" parent="1" vertex="1">
          <mxGeometry x="320" y="359" width="120" height="40" as="geometry" />
        </mxCell>
      </root>
    </mxGraphModel>
  </diagram>
  <diagram id="XrPPgUMyTxZaXeDSUMZ4" name="Page-2">
    <mxGraphModel dx="926" dy="493" grid="0" gridSize="10" guides="1" tooltips="1" connect="1" arrows="1" fold="1" page="1" pageScale="1" pageWidth="1169" pageHeight="827" math="0" shadow="0">
      <root>
        <mxCell id="IYlOKihxtgilmY3XUCAm-0" />
        <mxCell id="IYlOKihxtgilmY3XUCAm-1" parent="IYlOKihxtgilmY3XUCAm-0" />
        <mxCell id="XTWS8sP4vSJTlZUB7SxO-8" style="edgeStyle=orthogonalEdgeStyle;rounded=0;orthogonalLoop=1;jettySize=auto;html=1;exitX=0.5;exitY=1;exitDx=0;exitDy=0;entryX=0.5;entryY=0;entryDx=0;entryDy=0;" parent="IYlOKihxtgilmY3XUCAm-1" source="IYlOKihxtgilmY3XUCAm-2" target="BEmdinMRJuIhsy65v0YJ-1" edge="1">
          <mxGeometry relative="1" as="geometry" />
        </mxCell>
        <mxCell id="IYlOKihxtgilmY3XUCAm-2" value="扫描数据上报模版" style="rounded=0;whiteSpace=wrap;html=1;" parent="IYlOKihxtgilmY3XUCAm-1" vertex="1">
          <mxGeometry x="320" y="120" width="120" height="40" as="geometry" />
        </mxCell>
        <mxCell id="XTWS8sP4vSJTlZUB7SxO-9" style="edgeStyle=orthogonalEdgeStyle;rounded=0;orthogonalLoop=1;jettySize=auto;html=1;exitX=0.5;exitY=1;exitDx=0;exitDy=0;entryX=0.5;entryY=0;entryDx=0;entryDy=0;" parent="IYlOKihxtgilmY3XUCAm-1" source="BEmdinMRJuIhsy65v0YJ-1" target="XTWS8sP4vSJTlZUB7SxO-0" edge="1">
          <mxGeometry relative="1" as="geometry" />
        </mxCell>
        <mxCell id="BEmdinMRJuIhsy65v0YJ-1" value="&lt;span&gt;找出trigger_event为job的waring&lt;/span&gt;" style="rounded=0;whiteSpace=wrap;html=1;" parent="IYlOKihxtgilmY3XUCAm-1" vertex="1">
          <mxGeometry x="320" y="190" width="120" height="40" as="geometry" />
        </mxCell>
        <mxCell id="XTWS8sP4vSJTlZUB7SxO-10" style="edgeStyle=orthogonalEdgeStyle;rounded=0;orthogonalLoop=1;jettySize=auto;html=1;exitX=0.5;exitY=1;exitDx=0;exitDy=0;entryX=0.5;entryY=0;entryDx=0;entryDy=0;" parent="IYlOKihxtgilmY3XUCAm-1" source="XTWS8sP4vSJTlZUB7SxO-0" target="XTWS8sP4vSJTlZUB7SxO-1" edge="1">
          <mxGeometry relative="1" as="geometry" />
        </mxCell>
        <mxCell id="XTWS8sP4vSJTlZUB7SxO-0" value="&lt;span&gt;注册定时任务&lt;/span&gt;" style="rounded=0;whiteSpace=wrap;html=1;" parent="IYlOKihxtgilmY3XUCAm-1" vertex="1">
          <mxGeometry x="320" y="260" width="120" height="40" as="geometry" />
        </mxCell>
        <mxCell id="XTWS8sP4vSJTlZUB7SxO-11" style="edgeStyle=orthogonalEdgeStyle;rounded=0;orthogonalLoop=1;jettySize=auto;html=1;exitX=0.5;exitY=1;exitDx=0;exitDy=0;entryX=0.5;entryY=0;entryDx=0;entryDy=0;" parent="IYlOKihxtgilmY3XUCAm-1" source="XTWS8sP4vSJTlZUB7SxO-1" target="XTWS8sP4vSJTlZUB7SxO-2" edge="1">
          <mxGeometry relative="1" as="geometry" />
        </mxCell>
        <mxCell id="XTWS8sP4vSJTlZUB7SxO-1" value="&lt;span&gt;执行&lt;/span&gt;&lt;span&gt;trigger_condition&lt;/span&gt;" style="rounded=0;whiteSpace=wrap;html=1;" parent="IYlOKihxtgilmY3XUCAm-1" vertex="1">
          <mxGeometry x="320" y="330" width="120" height="40" as="geometry" />
        </mxCell>
        <mxCell id="XTWS8sP4vSJTlZUB7SxO-12" style="edgeStyle=orthogonalEdgeStyle;rounded=0;orthogonalLoop=1;jettySize=auto;html=1;exitX=0.5;exitY=1;exitDx=0;exitDy=0;entryX=0.5;entryY=0;entryDx=0;entryDy=0;" parent="IYlOKihxtgilmY3XUCAm-1" source="XTWS8sP4vSJTlZUB7SxO-2" target="XTWS8sP4vSJTlZUB7SxO-3" edge="1">
          <mxGeometry relative="1" as="geometry" />
        </mxCell>
        <mxCell id="XTWS8sP4vSJTlZUB7SxO-2" value="结果是否为True" style="rhombus;whiteSpace=wrap;html=1;rounded=0;" parent="IYlOKihxtgilmY3XUCAm-1" vertex="1">
          <mxGeometry x="340" y="400" width="80" height="80" as="geometry" />
        </mxCell>
        <mxCell id="XTWS8sP4vSJTlZUB7SxO-13" style="edgeStyle=orthogonalEdgeStyle;rounded=0;orthogonalLoop=1;jettySize=auto;html=1;exitX=0.5;exitY=1;exitDx=0;exitDy=0;entryX=0.5;entryY=0;entryDx=0;entryDy=0;entryPerimeter=0;" parent="IYlOKihxtgilmY3XUCAm-1" source="XTWS8sP4vSJTlZUB7SxO-3" target="XTWS8sP4vSJTlZUB7SxO-6" edge="1">
          <mxGeometry relative="1" as="geometry" />
        </mxCell>
        <mxCell id="XTWS8sP4vSJTlZUB7SxO-3" value="发告警消息" style="rounded=0;whiteSpace=wrap;html=1;" parent="IYlOKihxtgilmY3XUCAm-1" vertex="1">
          <mxGeometry x="320" y="510" width="120" height="40" as="geometry" />
        </mxCell>
        <mxCell id="XTWS8sP4vSJTlZUB7SxO-7" style="edgeStyle=orthogonalEdgeStyle;rounded=0;orthogonalLoop=1;jettySize=auto;html=1;exitX=0.5;exitY=1;exitDx=0;exitDy=0;exitPerimeter=0;entryX=0.5;entryY=0;entryDx=0;entryDy=0;" parent="IYlOKihxtgilmY3XUCAm-1" source="XTWS8sP4vSJTlZUB7SxO-4" target="IYlOKihxtgilmY3XUCAm-2" edge="1">
          <mxGeometry relative="1" as="geometry" />
        </mxCell>
        <mxCell id="XTWS8sP4vSJTlZUB7SxO-4" value="开始" style="strokeWidth=1;html=1;shape=mxgraph.flowchart.terminator;whiteSpace=wrap;rounded=0;" parent="IYlOKihxtgilmY3XUCAm-1" vertex="1">
          <mxGeometry x="330" y="50" width="100" height="40" as="geometry" />
        </mxCell>
        <mxCell id="XTWS8sP4vSJTlZUB7SxO-5" style="edgeStyle=orthogonalEdgeStyle;rounded=0;orthogonalLoop=1;jettySize=auto;html=1;exitX=0.5;exitY=1;exitDx=0;exitDy=0;exitPerimeter=0;" parent="IYlOKihxtgilmY3XUCAm-1" source="XTWS8sP4vSJTlZUB7SxO-4" target="XTWS8sP4vSJTlZUB7SxO-4" edge="1">
          <mxGeometry relative="1" as="geometry" />
        </mxCell>
        <mxCell id="XTWS8sP4vSJTlZUB7SxO-6" value="结束" style="strokeWidth=1;html=1;shape=mxgraph.flowchart.terminator;whiteSpace=wrap;rounded=0;" parent="IYlOKihxtgilmY3XUCAm-1" vertex="1">
          <mxGeometry x="330" y="580" width="100" height="40" as="geometry" />
        </mxCell>
        <mxCell id="XTWS8sP4vSJTlZUB7SxO-14" value="是" style="text;html=1;strokeColor=none;fillColor=none;align=center;verticalAlign=middle;whiteSpace=wrap;rounded=0;" parent="IYlOKihxtgilmY3XUCAm-1" vertex="1">
          <mxGeometry x="370" y="470" width="60" height="30" as="geometry" />
        </mxCell>
        <mxCell id="XTWS8sP4vSJTlZUB7SxO-16" value="" style="endArrow=classic;html=1;exitX=0;exitY=0.5;exitDx=0;exitDy=0;entryX=0;entryY=0.5;entryDx=0;entryDy=0;rounded=0;jumpStyle=none;shadow=0;sketch=0;entryPerimeter=0;edgeStyle=orthogonalEdgeStyle;" parent="IYlOKihxtgilmY3XUCAm-1" source="XTWS8sP4vSJTlZUB7SxO-2" target="XTWS8sP4vSJTlZUB7SxO-6" edge="1">
          <mxGeometry width="50" height="50" relative="1" as="geometry">
            <mxPoint x="450" y="460" as="sourcePoint" />
            <mxPoint x="240" y="600" as="targetPoint" />
            <Array as="points">
              <mxPoint x="280" y="440" />
              <mxPoint x="280" y="600" />
            </Array>
          </mxGeometry>
        </mxCell>
        <mxCell id="XTWS8sP4vSJTlZUB7SxO-18" value="否" style="text;html=1;strokeColor=none;fillColor=none;align=center;verticalAlign=middle;whiteSpace=wrap;rounded=0;" parent="IYlOKihxtgilmY3XUCAm-1" vertex="1">
          <mxGeometry x="280" y="440" width="60" height="30" as="geometry" />
        </mxCell>
        <mxCell id="XTWS8sP4vSJTlZUB7SxO-20" value="" style="ellipse;whiteSpace=wrap;html=1;sketch=0;fontColor=#5C5C5C;strokeColor=#FF6666;fillColor=none;dashed=1;" parent="IYlOKihxtgilmY3XUCAm-1" vertex="1">
          <mxGeometry x="290" y="310" width="180" height="80" as="geometry" />
        </mxCell>
        <mxCell id="XTWS8sP4vSJTlZUB7SxO-23" value="" style="html=1;shadow=0;dashed=0;align=center;verticalAlign=middle;shape=mxgraph.arrows2.uTurnArrow;dy=10.5;arrowHead=43;dx2=37.5;sketch=0;fontColor=#5C5C5C;strokeColor=#FF6666;fillColor=none;" parent="IYlOKihxtgilmY3XUCAm-1" vertex="1">
          <mxGeometry x="240" y="290" width="80" height="110" as="geometry" />
        </mxCell>
        <mxCell id="XTWS8sP4vSJTlZUB7SxO-25" value="" style="html=1;shadow=0;dashed=0;align=center;verticalAlign=middle;shape=mxgraph.arrows2.uTurnArrow;dy=11;arrowHead=43;dx2=39.25;sketch=0;fontColor=#5C5C5C;strokeColor=#FF6666;fillColor=none;rotation=-180;" parent="IYlOKihxtgilmY3XUCAm-1" vertex="1">
          <mxGeometry x="450" y="300" width="90" height="100" as="geometry" />
        </mxCell>
      </root>
    </mxGraphModel>
  </diagram>
</mxfile>
